<svg width="42" height="42" viewBox="0 0 42 42" fill="none" xmlns="http://www.w3.org/2000/svg">
<path d="M35.4375 6.5625H6.5625C5.86631 6.5625 5.19863 6.83906 4.70634 7.33134C4.21406 7.82363 3.9375 8.49131 3.9375 9.1875V32.8125C3.9375 33.5087 4.21406 34.1764 4.70634 34.6687C5.19863 35.1609 5.86631 35.4375 6.5625 35.4375H35.4375C36.1337 35.4375 36.8014 35.1609 37.2937 34.6687C37.7859 34.1764 38.0625 33.5087 38.0625 32.8125V9.1875C38.0625 8.49131 37.7859 7.82363 37.2937 7.33134C36.8014 6.83906 36.1337 6.5625 35.4375 6.5625ZM33.7411 14.0536L17.9911 29.8036C17.8692 29.9256 17.7244 30.0224 17.5651 30.0885C17.4058 30.1545 17.235 30.1885 17.0625 30.1885C16.89 30.1885 16.7192 30.1545 16.5599 30.0885C16.4006 30.0224 16.2558 29.9256 16.1339 29.8036L9.57141 23.2411C9.32513 22.9948 9.18677 22.6608 9.18677 22.3125C9.18677 21.9642 9.32513 21.6302 9.57141 21.3839C9.81768 21.1376 10.1517 20.9993 10.5 20.9993C10.8483 20.9993 11.1823 21.1376 11.4286 21.3839L17.0625 27.0195L31.8839 12.1964C32.1302 11.9501 32.4642 11.8118 32.8125 11.8118C33.1608 11.8118 33.4948 11.9501 33.7411 12.1964C33.9874 12.4427 34.1257 12.7767 34.1257 13.125C34.1257 13.4733 33.9874 13.8073 33.7411 14.0536Z" fill="#98FE74"/>
</svg>
